<svg width="11" height="14" viewBox="0 0 11 14" fill="none" xmlns="http://www.w3.org/2000/svg">
<path d="M5.33333 6.5C5.65556 6.5 5.93056 6.38611 6.15833 6.15833C6.38611 5.93056 6.5 5.65556 6.5 5.33333C6.5 5.01111 6.38611 4.73611 6.15833 4.50833C5.93056 4.28056 5.65556 4.16667 5.33333 4.16667C5.01111 4.16667 4.73611 4.28056 4.50833 4.50833C4.28056 4.73611 4.16667 5.01111 4.16667 5.33333C4.16667 5.65556 4.28056 5.93056 4.50833 6.15833C4.73611 6.38611 5.01111 6.5 5.33333 6.5ZM5.33333 12.0167C6.81111 10.6722 7.90278 9.45278 8.60833 8.35833C9.31389 7.26389 9.66667 6.3 9.66667 5.46667C9.66667 4.15556 9.24722 3.08333 8.40833 2.25C7.56944 1.41667 6.54444 1 5.33333 1C4.12222 1 3.09722 1.41667 2.25833 2.25C1.41944 3.08333 1 4.15556 1 5.46667C1 6.3 1.36111 7.26389 2.08333 8.35833C2.80556 9.45278 3.88889 10.6722 5.33333 12.0167ZM5.33333 13.3333C3.54444 11.8111 2.20833 10.3972 1.325 9.09167C0.441667 7.78611 0 6.57778 0 5.46667C0 3.8 0.536111 2.47222 1.60833 1.48333C2.68056 0.494444 3.92222 0 5.33333 0C6.74444 0 7.98611 0.494444 9.05833 1.48333C10.1306 2.47222 10.6667 3.8 10.6667 5.46667C10.6667 6.57778 10.225 7.78611 9.34167 9.09167C8.45833 10.3972 7.12222 11.8111 5.33333 13.3333Z" fill="black" fill-opacity="0.38"/>
</svg>
