<svg width="132" height="24" viewBox="0 0 132 24" fill="none" xmlns="http://www.w3.org/2000/svg">
<path d="M4.16 0.575928V6.97593H5.168C5.872 5.85593 7.248 5.08793 9.104 5.08793C13.04 5.08793 15.456 8.28793 15.456 12.3999C15.456 16.8799 12.8 19.7279 9.136 19.7279C7.248 19.7279 5.872 18.9919 5.2 17.8079H4.16V19.4559H0V0.575928H4.16ZM7.744 15.9199C9.904 15.9199 11.328 14.3839 11.328 12.3839C11.328 10.4159 9.904 8.87993 7.744 8.87993C5.552 8.87993 4.16 10.4159 4.16 12.3839C4.16 14.3839 5.552 15.9199 7.744 15.9199Z" fill="black"/>
<path d="M33.856 9.16795V5.35995H35.824V2.09595H39.952V5.35995H43.504V9.16795H39.952V13.5199C39.952 15.0239 40.384 15.6479 41.872 15.6479H43.52V19.4559H41.744C37.392 19.4559 35.84 17.6479 35.84 13.5679V9.16795H33.856Z" fill="black"/>
<path d="M51.04 10.7519H54.4V10.7039C54.4 9.15189 53.408 8.47989 51.936 8.47989C50.464 8.47989 49.712 9.18389 49.472 10.1439H45.472C45.744 7.21589 47.776 5.08789 52.016 5.08789C56.288 5.08789 58.56 7.24789 58.56 10.7839V19.4559H54.4V18.2239H53.392C52.736 18.9919 51.744 19.7279 49.776 19.7279C46.816 19.7279 45.296 17.7599 45.296 15.2639C45.296 12.4159 47.12 10.7519 51.04 10.7519ZM51.584 16.3039C52.592 16.3039 53.52 16.1119 54.4 15.5679V13.4399H51.552C50.208 13.4399 49.424 13.9359 49.424 14.8639C49.424 15.8079 50.224 16.3039 51.584 16.3039Z" fill="black"/>
<path d="M60.944 19.4559V5.35989H65.104V6.55989H66.112C66.848 5.67989 67.696 5.08789 69.536 5.08789C72.688 5.08789 74.384 7.13589 74.384 10.6719V19.4559H70.256V11.5679C70.256 9.79189 69.488 8.87989 67.744 8.87989C66.48 8.87989 65.696 9.23189 65.12 9.67989V19.4559H60.944Z" fill="black"/>
<path d="M78.848 0C80.192 0 81.12 0.895999 81.12 2.192C81.12 3.392 80.192 4.32 78.848 4.32C77.504 4.32 76.544 3.392 76.544 2.192C76.544 0.895999 77.504 0 78.848 0ZM80.928 5.36V19.456H76.768V5.36H80.928Z" fill="black"/>
<path d="M93.264 6.97589H94.272V5.35989H98.432V23.5519H94.272V17.8079H93.232C92.544 18.9919 91.184 19.7279 89.296 19.7279C85.632 19.7279 82.976 16.8799 82.976 12.3999C82.976 8.28789 85.392 5.08789 89.328 5.08789C91.184 5.08789 92.56 5.85589 93.264 6.97589ZM90.688 15.9199C92.88 15.9199 94.272 14.3839 94.272 12.3839C94.272 10.4159 92.88 8.87989 90.688 8.87989C88.528 8.87989 87.104 10.4159 87.104 12.3839C87.104 14.3839 88.528 15.9199 90.688 15.9199Z" fill="black"/>
<path d="M100.816 14.1441V5.36011H104.944V13.2481C104.944 15.0241 105.712 15.9361 107.456 15.9361C108.72 15.9361 109.504 15.5841 110.08 15.1361V5.36011H114.24V19.4561H110.08V18.2561H109.072C108.336 19.1361 107.488 19.7281 105.648 19.7281C102.512 19.7281 100.816 17.6801 100.816 14.1441Z" fill="black"/>
<path d="M116.304 12.384C116.304 8.27202 119.312 5.07202 123.856 5.07202C128.56 5.07202 131.36 8.30402 131.36 12.24C131.36 12.672 131.328 13.056 131.312 13.328H120.304C120.544 15.216 121.808 16.304 123.856 16.304C125.408 16.304 126.544 15.76 127.008 14.752H131.168C130.352 17.632 127.808 19.712 123.856 19.712C119.312 19.728 116.304 16.496 116.304 12.384ZM127.168 10.688C126.736 9.40802 125.632 8.46402 123.856 8.46402C122.112 8.46402 120.896 9.36002 120.464 10.688H127.168Z" fill="black"/>
<path d="M24.016 18.6881C23.92 17.9041 24.48 17.1841 25.28 17.0881C26.064 16.9921 26.784 17.5521 26.88 18.3521C26.976 19.1361 26.416 19.8561 25.616 19.9521C25.552 19.9521 25.504 19.9681 25.44 19.9681C24.72 19.9521 24.096 19.4081 24.016 18.6881ZM22.016 19.5041C21.264 19.2161 20.896 18.3841 21.184 17.6481C21.472 16.8961 22.304 16.5281 23.04 16.8161C23.776 17.1041 24.16 17.9361 23.872 18.6721C23.648 19.2481 23.104 19.6001 22.528 19.6001C22.352 19.6001 22.176 19.5681 22.016 19.5041ZM27.008 18.2881C26.56 17.6321 26.72 16.7361 27.376 16.2881C28.032 15.8401 28.928 16.0001 29.376 16.6561C29.824 17.3121 29.664 18.2081 29.008 18.6561C28.752 18.8321 28.464 18.9121 28.192 18.9121C27.728 18.9121 27.28 18.6881 27.008 18.2881ZM19.024 17.4401C18.496 16.8481 18.544 15.9361 19.136 15.4081C19.728 14.8801 20.64 14.9281 21.168 15.5201C21.696 16.1121 21.648 17.0241 21.056 17.5521C20.784 17.7921 20.448 17.9201 20.096 17.9201C19.696 17.9361 19.312 17.7601 19.024 17.4401ZM29.472 16.5441C28.768 16.1761 28.496 15.2961 28.864 14.5921C29.232 13.8881 30.112 13.6161 30.816 13.9841C31.52 14.3521 31.792 15.2321 31.424 15.9361C31.168 16.4321 30.672 16.7041 30.144 16.7041C29.904 16.7041 29.68 16.6561 29.472 16.5441ZM17.328 14.2401C17.136 13.4721 17.616 12.6881 18.384 12.4961C19.152 12.3041 19.936 12.7841 20.128 13.5521C20.32 14.3201 19.84 15.1041 19.072 15.2961C18.96 15.3281 18.848 15.3441 18.72 15.3441C18.08 15.3281 17.488 14.8961 17.328 14.2401ZM29.392 12.4161C29.392 12.4001 29.392 12.4001 29.392 12.4161C29.392 12.4001 29.392 12.4001 29.392 12.4161C29.392 11.6001 30.032 10.9601 30.832 10.9601C31.632 10.9601 32.272 11.6001 32.272 12.4001V12.4161C32.272 13.2161 31.632 13.8561 30.832 13.8561C30.048 13.8561 29.392 13.2001 29.392 12.4161ZM18.384 12.3521C17.616 12.1601 17.136 11.3761 17.328 10.6081C17.52 9.84009 18.304 9.36009 19.072 9.55209C19.84 9.74409 20.32 10.5121 20.128 11.2961C19.968 11.9521 19.376 12.4001 18.736 12.4001C18.608 12.3841 18.496 12.3841 18.384 12.3521ZM28.848 10.2081C28.48 9.50409 28.736 8.64009 29.44 8.25609C30.144 7.88809 31.008 8.14409 31.392 8.84809C31.76 9.55209 31.504 10.4161 30.8 10.8001C30.592 10.9121 30.352 10.9761 30.128 10.9761C29.616 10.9761 29.12 10.7041 28.848 10.2081ZM19.136 9.42409C18.544 8.89609 18.48 7.98409 19.008 7.39209C19.536 6.80009 20.448 6.73609 21.04 7.26409C21.632 7.79209 21.696 8.70409 21.168 9.29609C20.88 9.61609 20.48 9.77609 20.08 9.77609C19.744 9.77609 19.408 9.66409 19.136 9.42409ZM27.36 8.52809C26.704 8.08009 26.544 7.18409 26.992 6.52809C27.44 5.87209 28.336 5.71209 28.992 6.16009C29.648 6.60809 29.808 7.50409 29.36 8.16009C29.088 8.56009 28.624 8.78409 28.176 8.78409C27.888 8.78409 27.6 8.70409 27.36 8.52809ZM21.152 7.18409C20.864 6.44809 21.248 5.60009 21.984 5.32809C22.72 5.04009 23.552 5.42409 23.84 6.16009C24.128 6.89609 23.744 7.72809 23.008 8.01609C22.832 8.08009 22.672 8.11209 22.496 8.11209C21.92 8.11209 21.376 7.76009 21.152 7.18409ZM25.248 7.74409C24.464 7.64809 23.888 6.92809 23.984 6.14409C24.08 5.36009 24.8 4.78409 25.584 4.88009C26.368 4.97609 26.944 5.69609 26.848 6.48009C26.768 7.21609 26.144 7.74409 25.424 7.74409C25.36 7.74409 25.312 7.74409 25.248 7.74409Z" fill="black"/>
<path d="M22.496 16.2399C21.808 15.8399 21.568 14.9599 21.968 14.2719C22.368 13.5839 23.248 13.3439 23.936 13.7439C24.624 14.1439 24.864 15.0239 24.464 15.7119C24.192 16.1759 23.712 16.4319 23.216 16.4319C22.96 16.4319 22.72 16.3679 22.496 16.2399ZM24.944 15.7119C24.544 15.0239 24.784 14.1439 25.472 13.7439C26.16 13.3439 27.04 13.5839 27.44 14.2719C27.84 14.9599 27.6 15.8399 26.912 16.2399C26.688 16.3679 26.432 16.4319 26.192 16.4319C25.696 16.4319 25.2 16.1759 24.944 15.7119ZM20.272 12.4159C20.272 11.6159 20.912 10.9759 21.712 10.9759C22.512 10.9759 23.152 11.6159 23.152 12.4159C23.152 13.2159 22.512 13.8559 21.712 13.8559C20.928 13.8559 20.272 13.2159 20.272 12.4159ZM26.224 12.4479C26.224 12.4319 26.224 12.4159 26.224 12.3999C26.224 11.5999 26.864 10.9599 27.664 10.9599C28.464 10.9599 29.104 11.5999 29.104 12.3999V12.4159C29.104 13.2159 28.464 13.8559 27.664 13.8559C26.88 13.8559 26.256 13.2159 26.224 12.4479ZM21.952 10.5599C21.552 9.87189 21.792 8.9919 22.48 8.5919C23.168 8.1919 24.048 8.43189 24.448 9.11989C24.848 9.80789 24.608 10.6879 23.92 11.0879C23.696 11.2159 23.44 11.2799 23.2 11.2799C22.704 11.2799 22.224 11.0239 21.952 10.5599ZM25.456 11.0719C24.768 10.6719 24.528 9.7919 24.928 9.1039C25.328 8.4159 26.208 8.17589 26.896 8.57589C27.584 8.97589 27.824 9.8559 27.424 10.5439C27.152 11.0079 26.672 11.2639 26.176 11.2639C25.936 11.2639 25.68 11.1999 25.456 11.0719Z" fill="black"/>
</svg>
